<svg width="20" height="22" viewBox="0 0 20 22" fill="none" xmlns="http://www.w3.org/2000/svg">
<path d="M16.5634 14.6705L12.7038 13.8304V12.6897C12.9059 12.398 13.094 12.0254 13.2891 11.6387C13.4349 11.3504 13.6546 10.9146 13.746 10.8109C14.3735 10.1975 15.0414 9.43644 15.2488 8.42759C15.4562 7.42402 15.1943 6.90904 15.0431 6.70692C15.0431 6.00038 15.0431 4.71207 14.7971 3.76649C14.7689 2.62582 14.5457 1.9474 14.0097 1.36388C13.6072 0.928002 13.0395 0.833092 12.5843 0.755759C12.4366 0.731153 12.2152 0.694244 12.1484 0.66085C11.3803 0.233758 10.6 0.0246061 9.63329 0C7.68238 0.0738183 5.28504 1.31643 4.48183 3.54504C4.25334 4.17777 4.25334 5.12334 4.27443 6.20601L4.27268 6.63486C4.13207 6.9108 3.87019 7.42577 4.07758 8.42759C4.28498 9.4382 4.95286 10.1992 5.57504 10.8074C5.67347 10.9181 5.89844 11.3557 6.04607 11.6457C6.24292 12.0306 6.43098 12.4015 6.6331 12.6915V13.8321L2.77346 14.6723C1.16528 15.0168 0 16.4615 0 18.1048V20.2122C0 20.6973 0.393698 21.091 0.87879 21.091H18.4546C18.9397 21.091 19.3334 20.6973 19.3334 20.2122V18.1048C19.3334 16.4615 18.1681 15.0168 16.5634 14.6705Z" fill="black"/>
</svg>
